<svg width="680.2624999999999px" height="122px" xmlns="http://www.w3.org/2000/svg" viewBox="-90.13124999999997 14 680.2624999999999 122" style="background: rgba(0, 0, 0, 0);" preserveAspectRatio="xMidYMid"><defs><linearGradient id="editing-gradow-gradient" x1="0.40459550231172786" x2="0.5954044976882721" y1="0.9908135917238321" y2="0.009186408276167957" gradientUnits="objectBoundingBox"><stop offset="0" stop-color="#f0f"></stop><stop offset="1" stop-color="#0ff"></stop></linearGradient><filter id="editing-gradow-filter" x="-100%" y="-100%" width="300%" height="300%"><feFlood flood-color="rgba(0%,0%,0%,0)" result="flood"></feFlood><feComposite operator="in" in2="SourceAlpha" in="flood" result="shadow"></feComposite><feOffset dx="2.1" dy="-5.2" in="SourceGraphic" result="offset-1"></feOffset><feOffset dx="-2.1" dy="5.2" in="shadow" result="offset-2"></feOffset><feMerge><feMergeNode in="offset-2"></feMergeNode><feMergeNode in="offset-1"></feMergeNode></feMerge></filter></defs><g filter="url(#editing-gradow-filter)"><g transform="translate(6.504975318908691, 97.93000030517578)"><path d="M19.66 0.63L19.66 0.63Q14.43 0.63 10.62-1.01L10.62-1.01L10.62-1.01Q6.80-2.65 4.79-5.32L4.79-5.32L4.79-5.32Q2.77-8.00 2.65-11.09L2.65-11.09L2.65-11.09Q2.65-11.59 3.06-12.00L3.06-12.00L3.06-12.00Q3.46-12.41 4.03-12.41L4.03-12.41L7.25-12.41L7.25-12.41Q8.44-12.41 8.88-11.15L8.88-11.15L8.88-11.15Q9.45-8.51 12.13-6.62L12.13-6.62L12.13-6.62Q14.80-4.72 19.66-4.72L19.66-4.72L19.66-4.72Q24.89-4.72 27.53-6.58L27.53-6.58L27.53-6.58Q30.18-8.44 30.18-11.78L30.18-11.78L30.18-11.78Q30.18-13.92 28.89-15.25L28.89-15.25L28.89-15.25Q27.59-16.57 25.07-17.58L25.07-17.58L25.07-17.58Q22.55-18.59 17.51-20.10L17.51-20.10L17.51-20.10Q12.60-21.48 9.70-23.06L9.70-23.06L9.70-23.06Q6.80-24.63 5.36-26.96L5.36-26.96L5.36-26.96Q3.91-29.30 3.91-32.82L3.91-32.82L3.91-32.82Q3.91-36.23 5.76-38.93L5.76-38.93L5.76-38.93Q7.62-41.64 11.09-43.19L11.09-43.19L11.09-43.19Q14.55-44.73 19.34-44.73L19.34-44.73L19.34-44.73Q24.25-44.73 27.78-43.00L27.78-43.00L27.78-43.00Q31.31-41.27 33.14-38.62L33.14-38.62L33.14-38.62Q34.97-35.97 35.09-33.33L35.09-33.33L35.09-33.33Q35.09-32.82 34.74-32.45L34.74-32.45L34.74-32.45Q34.40-32.07 33.77-32.07L33.77-32.07L30.43-32.07L30.43-32.07Q29.11-32.07 28.79-33.26L28.79-33.26L28.79-33.26Q28.41-35.91 25.83-37.64L25.83-37.64L25.83-37.64Q23.25-39.38 19.34-39.38L19.34-39.38L19.34-39.38Q15.06-39.38 12.60-37.74L12.60-37.74L12.60-37.74Q10.14-36.10 10.14-32.89L10.14-32.89L10.14-32.89Q10.14-30.74 11.31-29.36L11.31-29.36L11.31-29.36Q12.47-27.97 14.87-26.93L14.87-26.93L14.87-26.93Q17.26-25.89 21.86-24.57L21.86-24.57L21.86-24.57Q27.22-23.12 30.30-21.58L30.30-21.58L30.30-21.58Q33.39-20.03 34.90-17.73L34.90-17.73L34.90-17.73Q36.41-15.44 36.41-11.91L36.41-11.91L36.41-11.91Q36.41-6.05 31.88-2.71L31.88-2.71L31.88-2.71Q27.34 0.63 19.66 0.63L19.66 0.63ZM45.36 0L45.36 0Q44.73 0 44.32-0.41L44.32-0.41L44.32-0.41Q43.91-0.82 43.91-1.45L43.91-1.45L43.91-43.28L43.91-43.28Q43.91-43.91 44.32-44.32L44.32-44.32L44.32-44.32Q44.73-44.73 45.36-44.73L45.36-44.73L48.51-44.73L48.51-44.73Q49.14-44.73 49.55-44.32L49.55-44.32L49.55-44.32Q49.96-43.91 49.96-43.28L49.96-43.28L49.96-28.60L49.96-28.60Q51.79-30.93 54.24-32.16L54.24-32.16L54.24-32.16Q56.70-33.39 60.35-33.39L60.35-33.39L60.35-33.39Q66.40-33.39 69.77-29.52L69.77-29.52L69.77-29.52Q73.14-25.64 73.14-19.21L73.14-19.21L73.14-1.45L73.14-1.45Q73.14-0.82 72.73-0.41L72.73-0.41L72.73-0.41Q72.32 0 71.69 0L71.69 0L68.54 0L68.54 0Q67.91 0 67.50-0.41L67.50-0.41L67.50-0.41Q67.09-0.82 67.09-1.45L67.09-1.45L67.09-18.90L67.09-18.90Q67.09-23.37 64.92-25.83L64.92-25.83L64.92-25.83Q62.75-28.29 58.65-28.29L58.65-28.29L58.65-28.29Q54.68-28.29 52.32-25.80L52.32-25.80L52.32-25.80Q49.96-23.31 49.96-18.90L49.96-18.90L49.96-1.45L49.96-1.45Q49.96-0.82 49.55-0.41L49.55-0.41L49.55-0.41Q49.14 0 48.51 0L48.51 0L45.36 0ZM95.63 0.63L95.63 0.63Q88.70 0.63 84.89-3.28L84.89-3.28L84.89-3.28Q81.08-7.18 80.83-13.67L80.83-13.67L80.77-16.38L80.83-19.09L80.83-19.09Q81.08-25.52 84.92-29.45L84.92-29.45L84.92-29.45Q88.77-33.39 95.63-33.39L95.63-33.39L95.63-33.39Q102.50-33.39 106.34-29.45L106.34-29.45L106.34-29.45Q110.19-25.52 110.44-19.09L110.44-19.09L110.44-19.09Q110.50-18.40 110.50-16.38L110.50-16.38L110.50-16.38Q110.50-14.36 110.44-13.67L110.44-13.67L110.44-13.67Q110.19-7.18 106.38-3.28L106.38-3.28L106.38-3.28Q102.56 0.63 95.63 0.63L95.63 0.63ZM95.63-4.22L95.63-4.22Q99.60-4.22 101.90-6.74L101.90-6.74L101.90-6.74Q104.20-9.26 104.39-13.99L104.39-13.99L104.39-13.99Q104.45-14.62 104.45-16.38L104.45-16.38L104.45-16.38Q104.45-18.14 104.39-18.77L104.39-18.77L104.39-18.77Q104.20-23.50 101.90-26.02L101.90-26.02L101.90-26.02Q99.60-28.54 95.63-28.54L95.63-28.54L95.63-28.54Q91.66-28.54 89.33-26.02L89.33-26.02L89.33-26.02Q87.00-23.50 86.88-18.77L86.88-18.77L86.81-16.38L86.88-13.99L86.88-13.99Q87.00-9.26 89.33-6.74L89.33-6.74L89.33-6.74Q91.66-4.22 95.63-4.22L95.63-4.22ZM130.35 0.63L130.35 0.63Q123.80 0.63 120.46-3.65L120.46-3.65L120.46-3.65Q117.12-7.94 116.93-14.49L116.93-14.49L116.87-16.38L116.93-18.27L116.93-18.27Q117.12-24.76 120.46-29.07L120.46-29.07L120.46-29.07Q123.80-33.39 130.35-33.39L130.35-33.39L130.35-33.39Q136.84-33.39 140.55-28.79L140.55-28.79L140.55-43.28L140.55-43.28Q140.55-43.91 140.96-44.32L140.96-44.32L140.96-44.32Q141.37-44.73 142.00-44.73L142.00-44.73L145.03-44.73L145.03-44.73Q145.66-44.73 146.07-44.32L146.07-44.32L146.07-44.32Q146.47-43.91 146.47-43.28L146.47-43.28L146.47-1.45L146.47-1.45Q146.47-0.82 146.07-0.41L146.07-0.41L146.07-0.41Q145.66 0 145.03 0L145.03 0L142.19 0L142.19 0Q141.56 0 141.15-0.41L141.15-0.41L141.15-0.41Q140.74-0.82 140.74-1.45L140.74-1.45L140.74-4.09L140.74-4.09Q137.09 0.63 130.35 0.63L130.35 0.63ZM131.67-4.47L131.67-4.47Q136.02-4.47 138.19-7.34L138.19-7.34L138.19-7.34Q140.36-10.21 140.55-14.18L140.55-14.18L140.55-14.18Q140.62-14.87 140.62-16.57L140.62-16.57L140.62-16.57Q140.62-18.33 140.55-19.03L140.55-19.03L140.55-19.03Q140.43-22.74 138.16-25.52L138.16-25.52L138.16-25.52Q135.89-28.29 131.67-28.29L131.67-28.29L131.67-28.29Q127.20-28.29 125.15-25.52L125.15-25.52L125.15-25.52Q123.10-22.74 122.91-18.21L122.91-18.21L122.85-16.38L122.85-16.38Q122.85-4.47 131.67-4.47L131.67-4.47ZM157.37 0L157.37 0Q156.74 0 156.33-0.41L156.33-0.41L156.33-0.41Q155.92-0.82 155.92-1.45L155.92-1.45L155.92-43.28L155.92-43.28Q155.92-43.91 156.33-44.32L156.33-44.32L156.33-44.32Q156.74-44.73 157.37-44.73L157.37-44.73L160.52-44.73L160.52-44.73Q161.15-44.73 161.56-44.32L161.56-44.32L161.56-44.32Q161.97-43.91 161.97-43.28L161.97-43.28L161.97-28.60L161.97-28.60Q163.80-30.93 166.26-32.16L166.26-32.16L166.26-32.16Q168.71-33.39 172.37-33.39L172.37-33.39L172.37-33.39Q178.42-33.39 181.79-29.52L181.79-29.52L181.79-29.52Q185.16-25.64 185.16-19.21L185.16-19.21L185.16-1.45L185.16-1.45Q185.16-0.82 184.75-0.41L184.75-0.41L184.75-0.41Q184.34 0 183.71 0L183.71 0L180.56 0L180.56 0Q179.93 0 179.52-0.41L179.52-0.41L179.52-0.41Q179.11-0.82 179.11-1.45L179.11-1.45L179.11-18.90L179.11-18.90Q179.11-23.37 176.94-25.83L176.94-25.83L176.94-25.83Q174.76-28.29 170.67-28.29L170.67-28.29L170.67-28.29Q166.70-28.29 164.34-25.80L164.34-25.80L164.34-25.80Q161.97-23.31 161.97-18.90L161.97-18.90L161.97-1.45L161.97-1.45Q161.97-0.82 161.56-0.41L161.56-0.41L161.56-0.41Q161.15 0 160.52 0L160.52 0L157.37 0ZM203.36 0.63L203.36 0.63Q200.28 0.63 197.63-0.63L197.63-0.63L197.63-0.63Q194.98-1.89 193.44-4.06L193.44-4.06L193.44-4.06Q191.90-6.24 191.90-8.88L191.90-8.88L191.90-8.88Q191.90-13.04 195.33-15.72L195.33-15.72L195.33-15.72Q198.76-18.40 204.62-19.21L204.62-19.21L214.01-20.54L214.01-22.36L214.01-22.36Q214.01-28.79 206.64-28.79L206.64-28.79L206.64-28.79Q203.87-28.79 202.10-27.63L202.10-27.63L202.10-27.63Q200.34-26.46 199.46-24.89L199.46-24.89L199.46-24.89Q199.27-24.32 198.99-24.07L198.99-24.07L198.99-24.07Q198.70-23.81 198.20-23.81L198.20-23.81L195.49-23.81L195.49-23.81Q194.92-23.81 194.51-24.22L194.51-24.22L194.51-24.22Q194.10-24.63 194.10-25.20L194.10-25.20L194.10-25.20Q194.17-26.71 195.52-28.63L195.52-28.63L195.52-28.63Q196.87-30.55 199.71-31.97L199.71-31.97L199.71-31.97Q202.54-33.39 206.70-33.39L206.70-33.39L206.70-33.39Q213.76-33.39 216.85-30.08L216.85-30.08L216.85-30.08Q219.93-26.77 219.93-21.86L219.93-21.86L219.93-1.45L219.93-1.45Q219.93-0.82 219.52-0.41L219.52-0.41L219.52-0.41Q219.11 0 218.48 0L218.48 0L215.59 0L215.59 0Q214.96 0 214.55-0.41L214.55-0.41L214.55-0.41Q214.14-0.82 214.14-1.45L214.14-1.45L214.14-4.16L214.14-4.16Q212.75-2.14 210.10-0.76L210.10-0.76L210.10-0.76Q207.46 0.63 203.36 0.63L203.36 0.63ZM204.69-4.09L204.69-4.09Q208.78-4.09 211.40-6.77L211.40-6.77L211.40-6.77Q214.01-9.45 214.01-14.49L214.01-14.49L214.01-16.25L206.70-15.18L206.70-15.18Q202.23-14.55 199.96-13.07L199.96-13.07L199.96-13.07Q197.69-11.59 197.69-9.32L197.69-9.32L197.69-9.32Q197.69-6.80 199.77-5.45L199.77-5.45L199.77-5.45Q201.85-4.09 204.69-4.09L204.69-4.09ZM230.52 0L230.52 0Q229.89 0 229.48-0.41L229.48-0.41L229.48-0.41Q229.07-0.82 229.07-1.45L229.07-1.45L229.07-43.28L229.07-43.28Q229.07-43.91 229.48-44.32L229.48-44.32L229.48-44.32Q229.89-44.73 230.52-44.73L230.52-44.73L233.48-44.73L233.48-44.73Q234.11-44.73 234.52-44.32L234.52-44.32L234.52-44.32Q234.93-43.91 234.93-43.28L234.93-43.28L234.93-21.36L247.34-31.69L247.34-31.69Q247.53-31.82 247.97-32.19L247.97-32.19L247.97-32.19Q248.41-32.51 248.82-32.63L248.82-32.63L248.82-32.63Q249.23-32.76 249.86-32.76L249.86-32.76L253.20-32.76L253.20-32.76Q253.76-32.76 254.14-32.38L254.14-32.38L254.14-32.38Q254.52-32.00 254.52-31.44L254.52-31.44L254.52-31.44Q254.52-30.74 253.76-30.24L253.76-30.24L239.21-18.14L255.34-2.46L255.34-2.46Q256.09-1.83 256.09-1.32L256.09-1.32L256.09-1.32Q256.09-0.76 255.72-0.38L255.72-0.38L255.72-0.38Q255.34 0 254.77 0L254.77 0L251.50 0L251.50 0Q250.55 0 250.14-0.19L250.14-0.19L250.14-0.19Q249.73-0.38 248.98-1.07L248.98-1.07L234.93-14.49L234.93-1.45L234.93-1.45Q234.93-0.82 234.52-0.41L234.52-0.41L234.52-0.41Q234.11 0 233.48 0L233.48 0L230.52 0ZM256.85 0L256.85 0ZM279.22 0L279.22 0Q278.59 0 278.18-0.41L278.18-0.41L278.18-0.41Q277.77-0.82 277.77-1.45L277.77-1.45L277.77-42.59L277.77-42.59Q277.77-43.28 278.18-43.69L278.18-43.69L278.18-43.69Q278.59-44.10 279.22-44.10L279.22-44.10L295.22-44.10L295.22-44.10Q302.34-44.10 306.43-40.63L306.43-40.63L306.43-40.63Q310.53-37.17 310.53-30.62L310.53-30.62L310.53-30.62Q310.53-24.07 306.46-20.63L306.46-20.63L306.46-20.63Q302.40-17.20 295.22-17.20L295.22-17.20L284.07-17.20L284.07-1.45L284.07-1.45Q284.07-0.82 283.63-0.41L283.63-0.41L283.63-0.41Q283.19 0 282.56 0L282.56 0L279.22 0ZM284.00-22.49L294.90-22.49L294.90-22.49Q299.50-22.49 301.86-24.57L301.86-24.57L301.86-24.57Q304.23-26.65 304.23-30.62L304.23-30.62L304.23-30.62Q304.23-34.59 301.90-36.70L301.90-36.70L301.90-36.70Q299.56-38.81 294.90-38.81L294.90-38.81L284.00-38.81L284.00-22.49ZM318.84 0L318.84 0Q318.21 0 317.80-0.41L317.80-0.41L317.80-0.41Q317.39-0.82 317.39-1.45L317.39-1.45L317.39-31.25L317.39-31.25Q317.39-31.88 317.80-32.32L317.80-32.32L317.80-32.32Q318.21-32.76 318.84-32.76L318.84-32.76L321.74-32.76L321.74-32.76Q322.37-32.76 322.81-32.32L322.81-32.32L322.81-32.32Q323.25-31.88 323.25-31.25L323.25-31.25L323.25-28.48L323.25-28.48Q325.84-32.76 332.07-32.76L332.07-32.76L334.53-32.76L334.53-32.76Q335.16-32.76 335.57-32.35L335.57-32.35L335.57-32.35Q335.98-31.94 335.98-31.31L335.98-31.31L335.98-28.73L335.98-28.73Q335.98-28.10 335.57-27.72L335.57-27.72L335.57-27.72Q335.16-27.34 334.53-27.34L334.53-27.34L330.75-27.34L330.75-27.34Q327.35-27.34 325.39-25.36L325.39-25.36L325.39-25.36Q323.44-23.37 323.44-19.97L323.44-19.97L323.44-1.45L323.44-1.45Q323.44-0.82 323.00-0.41L323.00-0.41L323.00-0.41Q322.56 0 321.93 0L321.93 0L318.84 0ZM350.47 0.63L350.47 0.63Q347.38 0.63 344.74-0.63L344.74-0.63L344.74-0.63Q342.09-1.89 340.55-4.06L340.55-4.06L340.55-4.06Q339.00-6.24 339.00-8.88L339.00-8.88L339.00-8.88Q339.00-13.04 342.44-15.72L342.44-15.72L342.44-15.72Q345.87-18.40 351.73-19.21L351.73-19.21L361.12-20.54L361.12-22.36L361.12-22.36Q361.12-28.79 353.74-28.79L353.74-28.79L353.74-28.79Q350.97-28.79 349.21-27.63L349.21-27.63L349.21-27.63Q347.44-26.46 346.56-24.89L346.56-24.89L346.56-24.89Q346.37-24.32 346.09-24.07L346.09-24.07L346.09-24.07Q345.81-23.81 345.30-23.81L345.30-23.81L342.59-23.81L342.59-23.81Q342.03-23.81 341.62-24.22L341.62-24.22L341.62-24.22Q341.21-24.63 341.21-25.20L341.21-25.20L341.21-25.20Q341.27-26.71 342.63-28.63L342.63-28.63L342.63-28.63Q343.98-30.55 346.81-31.97L346.81-31.97L346.81-31.97Q349.65-33.39 353.81-33.39L353.81-33.39L353.81-33.39Q360.86-33.39 363.95-30.08L363.95-30.08L363.95-30.08Q367.04-26.77 367.04-21.86L367.04-21.86L367.04-1.45L367.04-1.45Q367.04-0.82 366.63-0.41L366.63-0.41L366.63-0.41Q366.22 0 365.59 0L365.59 0L362.69 0L362.69 0Q362.06 0 361.65-0.41L361.65-0.41L361.65-0.41Q361.24-0.82 361.24-1.45L361.24-1.45L361.24-4.16L361.24-4.16Q359.86-2.14 357.21-0.76L357.21-0.76L357.21-0.76Q354.56 0.63 350.47 0.63L350.47 0.63ZM351.79-4.09L351.79-4.09Q355.89-4.09 358.50-6.77L358.50-6.77L358.50-6.77Q361.12-9.45 361.12-14.49L361.12-14.49L361.12-16.25L353.81-15.18L353.81-15.18Q349.33-14.55 347.07-13.07L347.07-13.07L347.07-13.07Q344.80-11.59 344.80-9.32L344.80-9.32L344.80-9.32Q344.80-6.80 346.88-5.45L346.88-5.45L346.88-5.45Q348.96-4.09 351.79-4.09L351.79-4.09ZM387.51 0L387.51 0Q385.88 0 385.18-1.57L385.18-1.57L373.53-30.81L373.40-31.44L373.40-31.44Q373.40-32.00 373.78-32.38L373.78-32.38L373.78-32.38Q374.16-32.76 374.72-32.76L374.72-32.76L377.75-32.76L377.75-32.76Q378.82-32.76 379.32-31.69L379.32-31.69L388.90-6.87L398.47-31.69L398.47-31.69Q399.04-32.76 399.99-32.76L399.99-32.76L403.07-32.76L403.07-32.76Q403.58-32.76 403.99-32.38L403.99-32.38L403.99-32.38Q404.40-32.00 404.40-31.44L404.40-31.44L404.27-30.81L392.55-1.57L392.55-1.57Q391.86 0 390.22 0L390.22 0L387.51 0ZM420.15 0.63L420.15 0.63Q417.06 0.63 414.41-0.63L414.41-0.63L414.41-0.63Q411.77-1.89 410.22-4.06L410.22-4.06L410.22-4.06Q408.68-6.24 408.68-8.88L408.68-8.88L408.68-8.88Q408.68-13.04 412.11-15.72L412.11-15.72L412.11-15.72Q415.55-18.40 421.41-19.21L421.41-19.21L430.79-20.54L430.79-22.36L430.79-22.36Q430.79-28.79 423.42-28.79L423.42-28.79L423.42-28.79Q420.65-28.79 418.89-27.63L418.89-27.63L418.89-27.63Q417.12-26.46 416.24-24.89L416.24-24.89L416.24-24.89Q416.05-24.32 415.77-24.07L415.77-24.07L415.77-24.07Q415.48-23.81 414.98-23.81L414.98-23.81L412.27-23.81L412.27-23.81Q411.70-23.81 411.30-24.22L411.30-24.22L411.30-24.22Q410.89-24.63 410.89-25.20L410.89-25.20L410.89-25.20Q410.95-26.71 412.30-28.63L412.30-28.63L412.30-28.63Q413.66-30.55 416.49-31.97L416.49-31.97L416.49-31.97Q419.33-33.39 423.49-33.39L423.49-33.39L423.49-33.39Q430.54-33.39 433.63-30.08L433.63-30.08L433.63-30.08Q436.72-26.77 436.72-21.86L436.72-21.86L436.72-1.45L436.72-1.45Q436.72-0.82 436.31-0.41L436.31-0.41L436.31-0.41Q435.90 0 435.27 0L435.27 0L432.37 0L432.37 0Q431.74 0 431.33-0.41L431.33-0.41L431.33-0.41Q430.92-0.82 430.92-1.45L430.92-1.45L430.92-4.16L430.92-4.16Q429.53-2.14 426.89-0.76L426.89-0.76L426.89-0.76Q424.24 0.63 420.15 0.63L420.15 0.63ZM421.47-4.09L421.47-4.09Q425.56-4.09 428.18-6.77L428.18-6.77L428.18-6.77Q430.79-9.45 430.79-14.49L430.79-14.49L430.79-16.25L423.49-15.18L423.49-15.18Q419.01-14.55 416.74-13.07L416.74-13.07L416.74-13.07Q414.48-11.59 414.48-9.32L414.48-9.32L414.48-9.32Q414.48-6.80 416.56-5.45L416.56-5.45L416.56-5.45Q418.63-4.09 421.47-4.09L421.47-4.09ZM457.13 0.63L457.13 0.63Q452.72 0.63 449.73-0.79L449.73-0.79L449.73-0.79Q446.73-2.21 445.25-4.03L445.25-4.03L445.25-4.03Q443.77-5.86 443.77-7.06L443.77-7.06L443.77-7.06Q443.77-7.69 444.24-8.03L444.24-8.03L444.24-8.03Q444.72-8.38 445.22-8.38L445.22-8.38L448.06-8.38L448.06-8.38Q448.69-8.38 449.19-7.75L449.19-7.75L449.19-7.75Q450.70-5.99 452.47-4.98L452.47-4.98L452.47-4.98Q454.23-3.97 457.19-3.97L457.19-3.97L457.19-3.97Q460.47-3.97 462.51-5.26L462.51-5.26L462.51-5.26Q464.56-6.55 464.56-8.82L464.56-8.82L464.56-8.82Q464.56-10.33 463.71-11.31L463.71-11.31L463.71-11.31Q462.86-12.29 460.81-13.01L460.81-13.01L460.81-13.01Q458.77-13.73 454.73-14.62L454.73-14.62L454.73-14.62Q449.25-15.81 446.95-18.08L446.95-18.08L446.95-18.08Q444.65-20.35 444.65-23.94L444.65-23.94L444.65-23.94Q444.65-26.33 446.07-28.51L446.07-28.51L446.07-28.51Q447.49-30.68 450.23-32.04L450.23-32.04L450.23-32.04Q452.97-33.39 456.81-33.39L456.81-33.39L456.81-33.39Q460.84-33.39 463.68-32.07L463.68-32.07L463.68-32.07Q466.51-30.74 467.93-28.95L467.93-28.95L467.93-28.95Q469.35-27.15 469.35-25.96L469.35-25.96L469.35-25.96Q469.35-25.39 468.94-25.01L468.94-25.01L468.94-25.01Q468.53-24.63 467.96-24.63L467.96-24.63L465.32-24.63L465.32-24.63Q464.56-24.63 464.06-25.26L464.06-25.26L464.06-25.26Q463.05-26.46 462.33-27.12L462.33-27.12L462.33-27.12Q461.60-27.78 460.25-28.29L460.25-28.29L460.25-28.29Q458.89-28.79 456.81-28.79L456.81-28.79L456.81-28.79Q453.79-28.79 452.15-27.50L452.15-27.50L452.15-27.50Q450.51-26.21 450.51-24.13L450.51-24.13L450.51-24.13Q450.51-22.81 451.21-21.89L451.21-21.89L451.21-21.89Q451.90-20.98 453.88-20.22L453.88-20.22L453.88-20.22Q455.87-19.47 459.65-18.65L459.65-18.65L459.65-18.65Q465.63-17.39 468.12-15.03L468.12-15.03L468.12-15.03Q470.61-12.66 470.61-9.01L470.61-9.01L470.61-9.01Q470.61-6.30 469.03-4.09L469.03-4.09L469.03-4.09Q467.46-1.89 464.40-0.63L464.40-0.63L464.40-0.63Q461.35 0.63 457.13 0.63L457.13 0.63ZM478.86-38.87L478.86-38.87Q478.23-38.87 477.82-39.28L477.82-39.28L477.82-39.28Q477.41-39.69 477.41-40.32L477.41-40.32L477.41-43.72L477.41-43.72Q477.41-44.35 477.82-44.79L477.82-44.79L477.82-44.79Q478.23-45.23 478.86-45.23L478.86-45.23L482.83-45.23L482.83-45.23Q483.46-45.23 483.90-44.79L483.90-44.79L483.90-44.79Q484.34-44.35 484.34-43.72L484.34-43.72L484.34-40.32L484.34-40.32Q484.34-39.69 483.90-39.28L483.90-39.28L483.90-39.28Q483.46-38.87 482.83-38.87L482.83-38.87L478.86-38.87ZM479.37 0L479.37 0Q478.74 0 478.33-0.41L478.33-0.41L478.33-0.41Q477.92-0.82 477.92-1.45L477.92-1.45L477.92-31.31L477.92-31.31Q477.92-31.94 478.33-32.35L478.33-32.35L478.33-32.35Q478.74-32.76 479.37-32.76L479.37-32.76L482.39-32.76L482.39-32.76Q483.02-32.76 483.43-32.35L483.43-32.35L483.43-32.35Q483.84-31.94 483.84-31.31L483.84-31.31L483.84-1.45L483.84-1.45Q483.84-0.82 483.43-0.41L483.43-0.41L483.43-0.41Q483.02 0 482.39 0L482.39 0L479.37 0Z" fill="url(#editing-gradow-gradient)"></path></g></g><style>text {
  font-size: 64px;
  font-family: Arial Black;
  dominant-baseline: central;
  text-anchor: middle;
}</style></svg>